<mxfile host="app.diagrams.net" agent="Mozilla/5.0 (Windows NT 10.0; Win64; x64) AppleWebKit/537.36 (KHTML, like Gecko) Chrome/135.0.0.0 Safari/537.36" version="26.2.12">
  <diagram name="PÃ¡gina-1" id="cU5UfnwFndMo5d4jOF6x">
    <mxGraphModel dx="1044" dy="562" grid="1" gridSize="10" guides="1" tooltips="1" connect="1" arrows="1" fold="1" page="1" pageScale="1" pageWidth="827" pageHeight="1169" math="0" shadow="0">
      <root>
        <mxCell id="0" />
        <mxCell id="1" parent="0" />
        <mxCell id="GeHEEWUjTWmbUjY01t_j-5" value="" style="edgeStyle=orthogonalEdgeStyle;rounded=0;orthogonalLoop=1;jettySize=auto;html=1;" edge="1" parent="1" source="GeHEEWUjTWmbUjY01t_j-1" target="GeHEEWUjTWmbUjY01t_j-4">
          <mxGeometry relative="1" as="geometry" />
        </mxCell>
        <mxCell id="GeHEEWUjTWmbUjY01t_j-1" value="INICIO" style="strokeWidth=2;html=1;shape=mxgraph.flowchart.start_1;whiteSpace=wrap;fillColor=#d5e8d4;strokeColor=#82b366;" vertex="1" parent="1">
          <mxGeometry x="350" y="70" width="100" height="60" as="geometry" />
        </mxCell>
        <mxCell id="GeHEEWUjTWmbUjY01t_j-2" value="FIM" style="strokeWidth=2;html=1;shape=mxgraph.flowchart.start_1;whiteSpace=wrap;fillColor=#d5e8d4;strokeColor=#82b366;" vertex="1" parent="1">
          <mxGeometry x="350" y="860" width="100" height="60" as="geometry" />
        </mxCell>
        <mxCell id="GeHEEWUjTWmbUjY01t_j-8" value="" style="edgeStyle=orthogonalEdgeStyle;rounded=0;orthogonalLoop=1;jettySize=auto;html=1;" edge="1" parent="1" source="GeHEEWUjTWmbUjY01t_j-4" target="GeHEEWUjTWmbUjY01t_j-6">
          <mxGeometry relative="1" as="geometry" />
        </mxCell>
        <mxCell id="GeHEEWUjTWmbUjY01t_j-4" value="A[1, 4, 5, 6, 7]" style="whiteSpace=wrap;html=1;fillColor=#f5f5f5;strokeColor=#666666;strokeWidth=2;fontColor=#333333;" vertex="1" parent="1">
          <mxGeometry x="340" y="210" width="120" height="40" as="geometry" />
        </mxCell>
        <mxCell id="GeHEEWUjTWmbUjY01t_j-9" value="" style="edgeStyle=orthogonalEdgeStyle;rounded=0;orthogonalLoop=1;jettySize=auto;html=1;" edge="1" parent="1" source="GeHEEWUjTWmbUjY01t_j-6" target="GeHEEWUjTWmbUjY01t_j-7">
          <mxGeometry relative="1" as="geometry" />
        </mxCell>
        <mxCell id="GeHEEWUjTWmbUjY01t_j-6" value="&lt;div&gt;&lt;br&gt;&lt;/div&gt;INTEIRO" style="html=1;strokeWidth=2;shape=manualInput;whiteSpace=wrap;rounded=1;size=26;arcSize=11;fillColor=#dae8fc;strokeColor=#6c8ebf;" vertex="1" parent="1">
          <mxGeometry x="350" y="280" width="100" height="60" as="geometry" />
        </mxCell>
        <mxCell id="GeHEEWUjTWmbUjY01t_j-11" value="" style="edgeStyle=orthogonalEdgeStyle;rounded=0;orthogonalLoop=1;jettySize=auto;html=1;" edge="1" parent="1" source="GeHEEWUjTWmbUjY01t_j-7" target="GeHEEWUjTWmbUjY01t_j-10">
          <mxGeometry relative="1" as="geometry" />
        </mxCell>
        <mxCell id="GeHEEWUjTWmbUjY01t_j-7" value="CALCULA TAMANHO" style="whiteSpace=wrap;html=1;fillColor=#f5f5f5;strokeColor=#666666;strokeWidth=2;fontColor=#333333;" vertex="1" parent="1">
          <mxGeometry x="340" y="380" width="120" height="40" as="geometry" />
        </mxCell>
        <mxCell id="GeHEEWUjTWmbUjY01t_j-14" value="" style="edgeStyle=orthogonalEdgeStyle;rounded=0;orthogonalLoop=1;jettySize=auto;html=1;" edge="1" parent="1" source="GeHEEWUjTWmbUjY01t_j-10" target="GeHEEWUjTWmbUjY01t_j-13">
          <mxGeometry relative="1" as="geometry" />
        </mxCell>
        <mxCell id="GeHEEWUjTWmbUjY01t_j-10" value="I=1, I &amp;lt;=TAMANHO, I++" style="shape=hexagon;perimeter=hexagonPerimeter2;whiteSpace=wrap;html=1;fixedSize=1;fillColor=#fff2cc;strokeColor=#d6b656;" vertex="1" parent="1">
          <mxGeometry x="315" y="460" width="170" height="40" as="geometry" />
        </mxCell>
        <mxCell id="GeHEEWUjTWmbUjY01t_j-15" style="edgeStyle=orthogonalEdgeStyle;rounded=0;orthogonalLoop=1;jettySize=auto;html=1;exitX=0;exitY=0.5;exitDx=0;exitDy=0;entryX=0;entryY=0.5;entryDx=0;entryDy=0;" edge="1" parent="1" source="GeHEEWUjTWmbUjY01t_j-13" target="GeHEEWUjTWmbUjY01t_j-10">
          <mxGeometry relative="1" as="geometry" />
        </mxCell>
        <mxCell id="GeHEEWUjTWmbUjY01t_j-16" value="N" style="edgeLabel;html=1;align=center;verticalAlign=middle;resizable=0;points=[];" vertex="1" connectable="0" parent="GeHEEWUjTWmbUjY01t_j-15">
          <mxGeometry x="-0.6758" y="-2" relative="1" as="geometry">
            <mxPoint as="offset" />
          </mxGeometry>
        </mxCell>
        <mxCell id="GeHEEWUjTWmbUjY01t_j-13" value="INTEIRO&lt;div&gt;=&lt;/div&gt;&lt;div&gt;A[I]&lt;/div&gt;" style="rhombus;whiteSpace=wrap;html=1;fillColor=#ffe6cc;strokeColor=#d79b00;" vertex="1" parent="1">
          <mxGeometry x="360" y="545" width="80" height="80" as="geometry" />
        </mxCell>
        <mxCell id="GeHEEWUjTWmbUjY01t_j-21" value="" style="edgeStyle=orthogonalEdgeStyle;rounded=0;orthogonalLoop=1;jettySize=auto;html=1;" edge="1" parent="1" source="GeHEEWUjTWmbUjY01t_j-17" target="GeHEEWUjTWmbUjY01t_j-20">
          <mxGeometry relative="1" as="geometry" />
        </mxCell>
        <mxCell id="GeHEEWUjTWmbUjY01t_j-17" value="A[I]&lt;div&gt;I&lt;/div&gt;" style="strokeWidth=2;html=1;shape=mxgraph.flowchart.display;whiteSpace=wrap;fillColor=#e1d5e7;strokeColor=#9673a6;" vertex="1" parent="1">
          <mxGeometry x="350" y="660" width="100" height="60" as="geometry" />
        </mxCell>
        <mxCell id="GeHEEWUjTWmbUjY01t_j-18" style="edgeStyle=orthogonalEdgeStyle;rounded=0;orthogonalLoop=1;jettySize=auto;html=1;exitX=0.5;exitY=1;exitDx=0;exitDy=0;entryX=0.5;entryY=0;entryDx=0;entryDy=0;entryPerimeter=0;" edge="1" parent="1" source="GeHEEWUjTWmbUjY01t_j-13" target="GeHEEWUjTWmbUjY01t_j-17">
          <mxGeometry relative="1" as="geometry" />
        </mxCell>
        <mxCell id="GeHEEWUjTWmbUjY01t_j-19" value="S" style="edgeLabel;html=1;align=center;verticalAlign=middle;resizable=0;points=[];" vertex="1" connectable="0" parent="GeHEEWUjTWmbUjY01t_j-18">
          <mxGeometry x="-0.2914" relative="1" as="geometry">
            <mxPoint as="offset" />
          </mxGeometry>
        </mxCell>
        <mxCell id="GeHEEWUjTWmbUjY01t_j-23" value="" style="edgeStyle=orthogonalEdgeStyle;rounded=0;orthogonalLoop=1;jettySize=auto;html=1;" edge="1" parent="1" source="GeHEEWUjTWmbUjY01t_j-20" target="GeHEEWUjTWmbUjY01t_j-2">
          <mxGeometry relative="1" as="geometry" />
        </mxCell>
        <mxCell id="GeHEEWUjTWmbUjY01t_j-20" value="" style="verticalLabelPosition=bottom;verticalAlign=top;html=1;shape=mxgraph.flowchart.on-page_reference;fillColor=#f5f5f5;gradientColor=#b3b3b3;strokeColor=#666666;" vertex="1" parent="1">
          <mxGeometry x="385" y="760" width="30" height="30" as="geometry" />
        </mxCell>
        <mxCell id="GeHEEWUjTWmbUjY01t_j-22" style="edgeStyle=orthogonalEdgeStyle;rounded=0;orthogonalLoop=1;jettySize=auto;html=1;exitX=1;exitY=0.5;exitDx=0;exitDy=0;entryX=1;entryY=0.5;entryDx=0;entryDy=0;entryPerimeter=0;" edge="1" parent="1" source="GeHEEWUjTWmbUjY01t_j-10" target="GeHEEWUjTWmbUjY01t_j-20">
          <mxGeometry relative="1" as="geometry" />
        </mxCell>
      </root>
    </mxGraphModel>
  </diagram>
</mxfile>
